<?xml version="1.0" standalone="no"?>
<!DOCTYPE svg PUBLIC "-//W3C//DTD SVG 20010904//EN"
 "http://www.w3.org/TR/2001/REC-SVG-20010904/DTD/svg10.dtd">
<svg version="1.0" xmlns="http://www.w3.org/2000/svg"
 width="413.000000pt" height="531.000000pt" viewBox="0 0 413.000000 531.000000"
 preserveAspectRatio="xMidYMid meet">

<g transform="translate(0.000000,531.000000) scale(0.100000,-0.100000)"
fill="black" stroke="none">
<path d="M2053 5092 c-12 -2 -25 -12 -28 -22 -5 -16 -14 -18 -63 -14 -31 2
-75 6 -97 7 -23 2 -47 7 -55 12 -9 5 -15 4 -18 -4 -3 -8 -8 -9 -16 -2 -8 7
-38 2 -91 -13 -94 -27 -131 -45 -165 -81 -13 -14 -40 -36 -60 -47 -19 -12 -72
-55 -117 -95 -74 -67 -88 -85 -148 -200 -51 -96 -74 -155 -96 -241 -16 -62
-39 -141 -50 -175 -66 -193 -78 -478 -34 -777 2 -14 4 -35 4 -48 1 -14 6 -22
13 -20 15 5 58 -76 58 -109 0 -13 5 -23 10 -23 6 0 10 -18 10 -39 0 -42 20
-69 21 -29 1 55 7 104 15 123 8 20 7 20 -11 1 -18 -18 -19 -18 -25 0 -8 22 -1
54 11 54 5 0 6 7 2 16 -5 13 -9 10 -20 -12 -7 -16 -11 -21 -8 -11 3 10 5 27 5
38 0 12 5 16 15 13 10 -4 15 0 15 11 0 9 -5 13 -10 10 -5 -3 -10 3 -10 15 0
12 -4 19 -9 16 -5 -3 -11 7 -13 23 -2 17 0 29 5 28 5 -1 12 4 15 12 3 8 0 11
-7 7 -15 -10 -14 15 4 57 8 20 12 44 9 54 -5 15 -4 16 5 3 9 -12 11 -10 11 11
0 33 25 57 34 34 3 -9 10 -14 16 -10 6 4 6 15 0 31 -7 18 -7 23 2 18 8 -5 9 3
5 30 -3 20 -2 34 3 31 5 -3 11 -1 15 5 4 6 10 8 14 6 4 -3 8 4 8 15 1 11 -2
17 -8 14 -5 -4 -9 -1 -9 5 0 6 -4 9 -9 6 -5 -4 -7 4 -4 16 l6 23 -22 -24 c-11
-13 -21 -20 -21 -14 0 5 16 24 35 42 28 25 34 37 29 56 -4 15 -2 25 5 25 6 0
11 8 11 18 0 9 7 30 15 46 8 15 15 39 15 52 0 13 4 24 9 24 7 0 25 35 36 73 1
4 4 10 5 15 1 4 3 12 4 17 5 39 78 124 125 147 40 19 55 22 47 10 -3 -5 1 -9
9 -9 8 0 17 8 20 18 4 11 12 15 25 12 11 -3 17 -9 14 -14 -3 -5 2 -9 10 -9 8
0 18 5 21 10 4 6 10 8 15 5 5 -3 14 1 22 8 21 21 83 39 111 32 16 -4 26 -2 30
8 6 17 54 20 64 4 4 -6 0 -8 -10 -4 -21 8 -22 0 -2 -19 8 -9 19 -13 24 -10 5
3 13 0 19 -7 20 -24 69 -19 99 9 16 15 22 25 13 24 -26 -4 -40 0 -40 10 0 6
10 10 23 10 13 0 28 5 33 10 6 6 33 10 60 10 95 -1 118 1 125 11 4 7 17 6 37
-5 37 -19 46 -20 36 -3 -4 6 1 4 12 -5 13 -12 24 -14 34 -8 13 8 12 10 -2 10
-10 0 -18 5 -18 11 0 5 3 8 8 6 34 -18 106 -26 235 -26 36 0 47 -4 47 -16 0
-12 -4 -14 -19 -5 -20 10 -51 4 -51 -10 0 -6 38 -12 84 -11 11 0 27 -4 38 -10
13 -7 18 -6 18 3 0 6 9 2 20 -10 28 -30 44 -28 36 3 -6 25 0 30 28 19 9 -3 13
-11 9 -17 -3 -6 -1 -7 5 -3 15 9 63 -4 56 -16 -3 -5 -13 -7 -21 -4 -8 3 -11 1
-8 -5 4 -5 15 -7 24 -4 17 5 61 -24 61 -41 0 -5 10 -15 21 -23 16 -10 23 -10
29 -1 5 8 9 4 13 -10 4 -17 10 -20 26 -15 15 5 21 2 21 -9 0 -9 4 -16 10 -16
5 0 8 -10 6 -22 -4 -29 10 -58 29 -58 18 0 19 -21 3 -39 -11 -11 -8 -12 12 -6
22 7 23 6 12 -8 -11 -13 -12 -23 -1 -54 7 -21 12 -44 11 -51 -2 -7 4 -19 13
-28 13 -13 20 -51 18 -101 -1 -7 3 -13 8 -13 5 0 9 15 9 33 0 23 3 28 9 17 6
-8 7 -18 4 -22 -2 -5 0 -14 5 -21 13 -16 22 -58 12 -52 -5 3 -8 -3 -7 -14 0
-11 4 -18 8 -15 8 5 49 -75 49 -95 0 -8 9 -29 21 -47 11 -19 18 -38 14 -43 -3
-5 3 -14 12 -20 11 -7 14 -14 8 -18 -13 -10 -20 -57 -7 -49 5 3 14 -6 21 -20
10 -23 9 -25 -9 -19 -11 4 -20 2 -20 -4 0 -6 4 -11 10 -11 6 0 6 -9 0 -26 -13
-34 -13 -47 2 -38 7 5 8 3 4 -5 -13 -20 -19 -74 -8 -67 6 3 12 0 15 -6 8 -21
25 33 39 123 13 84 16 384 6 489 -3 30 -16 89 -28 130 -27 90 -30 153 -12 199
23 57 11 164 -28 246 -18 39 -40 79 -49 90 -10 11 -30 40 -44 65 -15 25 -36
56 -47 70 -17 21 -19 22 -14 5 5 -16 4 -17 -4 -5 -6 8 -8 18 -6 22 9 14 -48
79 -63 74 -8 -3 -11 -1 -8 5 8 12 -14 41 -25 34 -5 -3 -13 9 -19 25 -10 31
-25 35 -49 13 -20 -19 -40 -16 -52 7 -9 16 -8 20 6 20 10 0 14 5 10 16 -4 9
-2 13 5 8 7 -4 10 -2 8 5 -3 7 -38 26 -78 43 -58 24 -78 29 -91 20 -18 -11
-60 -6 -60 7 0 4 6 13 13 20 10 11 8 12 -10 6 -14 -4 -23 -2 -23 4 0 6 -15 11
-34 11 -19 0 -47 5 -61 10 -20 8 -30 7 -41 -5 -13 -13 -18 -13 -37 -1 -16 11
-68 15 -192 18 -93 2 -180 2 -192 0z m862 -202 c-3 -5 -1 -10 4 -10 6 0 11 -5
11 -11 0 -8 -5 -8 -15 1 -17 14 -20 30 -4 30 5 0 7 -4 4 -10z m-1 -52 c5 -19
8 -20 15 -9 10 16 15 8 39 -66 10 -34 0 -47 -12 -16 -6 15 -8 15 -17 3 -8 -11
-9 -10 -4 8 5 17 1 24 -17 31 -13 6 -17 10 -9 10 11 1 10 6 -3 26 -18 28 -20
35 -7 35 5 0 11 -10 15 -22z m-964 -439 c13 -9 12 -10 -2 -5 -12 4 -18 0 -18
-11 0 -12 -3 -13 -15 -3 -28 23 4 41 35 19z m-863 -831 c-3 -8 -6 -5 -6 6 -1
11 2 17 5 13 3 -3 4 -12 1 -19z m-20 -70 c-3 -8 -6 -5 -6 6 -1 11 2 17 5 13 3
-3 4 -12 1 -19z"/>
<path d="M2760 4330 c0 -5 5 -10 11 -10 5 0 7 5 4 10 -3 6 -8 10 -11 10 -2 0
-4 -4 -4 -10z"/>
<path d="M3110 3756 c0 -9 5 -16 10 -16 6 0 10 4 10 9 0 6 -4 13 -10 16 -5 3
-10 -1 -10 -9z"/>
<path d="M1127 3604 c-4 -4 -7 -14 -7 -23 0 -11 3 -12 11 -4 6 6 10 16 7 23
-2 6 -7 8 -11 4z"/>
<path d="M1524 3509 c-3 -6 -17 -9 -30 -6 -14 2 -25 -1 -28 -9 -3 -8 -15 -14
-27 -14 -20 0 -108 -80 -110 -100 -3 -20 -4 -25 -11 -36 -4 -6 -5 -14 -1 -18
12 -12 62 -6 77 9 8 8 19 15 25 15 6 0 7 8 4 17 -5 13 -3 15 13 9 41 -17 54
-18 54 -4 0 26 186 29 255 4 22 -8 72 -16 110 -19 39 -3 79 -8 90 -12 16 -4
15 -3 -2 6 -13 7 -23 15 -23 19 0 14 29 19 34 7 2 -7 5 -4 5 6 1 9 -5 17 -11
17 -9 0 -8 3 2 10 8 5 12 10 10 12 -26 16 -52 28 -65 28 -8 0 -15 5 -15 10 0
6 -7 10 -15 10 -8 0 -15 4 -15 9 0 5 -30 9 -67 10 -38 0 -90 5 -118 11 -79 17
-134 20 -141 9z"/>
<path d="M1111 3477 c-13 -21 -12 -21 5 -5 10 10 16 20 13 22 -3 3 -11 -5 -18
-17z"/>
<path d="M2850 3490 c-8 -5 -18 -6 -22 -4 -4 3 -8 -1 -8 -9 0 -9 -10 -14 -29
-13 -16 1 -27 4 -24 9 2 4 -1 7 -6 7 -6 0 -11 -6 -11 -12 -1 -9 -5 -7 -13 3
-10 14 -21 15 -72 7 -33 -6 -81 -11 -106 -13 -95 -7 -160 -35 -128 -56 12 -8
12 -11 -1 -19 -12 -8 -10 -10 10 -8 19 2 25 -2 24 -14 -1 -10 -1 -18 0 -19 0
0 22 -3 48 -6 33 -3 65 1 108 16 115 40 314 37 375 -5 32 -23 48 -18 40 13
-12 49 -52 89 -99 97 -25 5 -61 19 -66 27 -3 4 -12 4 -20 -1z"/>
<path d="M1030 3335 c0 -14 4 -25 9 -25 4 0 6 11 3 25 -2 14 -6 25 -8 25 -2 0
-4 -11 -4 -25z"/>
<path d="M1798 3343 c7 -3 16 -2 19 1 4 3 -2 6 -13 5 -11 0 -14 -3 -6 -6z"/>
<path d="M1630 3329 c-67 -6 -107 -15 -135 -30 -91 -50 -107 -89 -54 -140 29
-29 32 -29 107 -24 42 3 89 5 104 5 15 0 29 4 33 10 3 5 11 10 16 10 6 0 8 -4
5 -8 -3 -5 1 -9 9 -9 8 0 15 5 15 10 0 5 8 21 19 35 10 15 20 35 22 44 4 16 9
14 49 -12 44 -29 44 -29 20 -39 -22 -9 -21 -10 18 -10 23 -1 42 4 42 9 0 19
-48 57 -108 86 -49 24 -70 28 -144 28 -107 1 -102 19 7 24 50 3 91 -1 123 -11
54 -18 172 -86 172 -99 0 -8 38 -2 49 8 7 7 -32 44 -46 44 -13 0 -23 7 -58 38
-7 6 -21 12 -29 12 -9 0 -16 4 -16 8 0 5 -21 9 -47 10 -27 2 -55 4 -63 6 -8 2
-58 -1 -110 -5z m-9 -136 c4 -12 18 -24 31 -27 13 -2 -5 -4 -40 -2 -34 1 -67
7 -73 13 -16 16 -3 46 28 64 31 17 28 20 54 -48z m127 49 c2 -7 -6 -12 -17
-12 -21 0 -27 11 -14 24 9 9 26 2 31 -12z m-78 -2 c0 -5 -4 -10 -10 -10 -5 0
-10 5 -10 10 0 6 5 10 10 10 6 0 10 -4 10 -10z"/>
<path d="M960 3304 c22 -28 64 -64 74 -64 13 0 -43 59 -69 72 -19 11 -19 10
-5 -8z"/>
<path d="M2563 3309 c-45 -8 -137 -65 -128 -78 2 -5 37 8 76 27 123 61 260 56
344 -12 l30 -25 -67 24 c-130 47 -263 29 -334 -46 -34 -36 -21 -38 28 -4 20
14 41 25 45 25 4 -1 15 -16 24 -35 15 -31 15 -34 0 -38 -9 -3 0 -5 19 -6 19
-1 42 -5 50 -10 8 -6 18 -7 23 -4 5 3 3 9 -4 14 -9 6 -10 9 -2 9 6 0 18 -6 25
-13 29 -28 170 -27 207 2 24 18 24 20 8 45 -10 14 -13 26 -8 26 5 0 11 -6 14
-12 2 -7 8 -10 12 -6 13 12 -22 54 -67 81 -59 34 -209 53 -295 36z m125 -87
c2 -7 -3 -12 -12 -12 -9 0 -16 7 -16 16 0 17 22 14 28 -4z m-68 -2 c0 -5 -7
-10 -15 -10 -8 0 -15 5 -15 10 0 6 7 10 15 10 8 0 15 -4 15 -10z m186 -43 c1
-11 -7 -22 -22 -28 -30 -11 -87 -12 -82 -1 2 4 12 24 21 45 l18 38 31 -18 c17
-10 32 -26 34 -36z"/>
<path d="M3197 3266 c-8 -55 -9 -162 -2 -155 2 3 6 25 8 49 3 25 8 53 12 63 4
10 5 21 1 24 -3 3 2 12 12 19 14 10 15 15 5 25 -11 11 -13 10 -14 -1 0 -9 -3
-7 -8 5 -6 14 -9 7 -14 -29z"/>
<path d="M863 3258 c-14 -18 -33 -101 -32 -140 0 -18 6 -51 14 -73 13 -39 13
-39 7 28 -5 69 9 137 35 168 7 9 10 19 6 22 -10 10 -19 8 -30 -5z"/>
<path d="M1745 3160 c-3 -6 1 -7 9 -4 18 7 21 14 7 14 -6 0 -13 -4 -16 -10z"/>
<path d="M1039 3017 c-22 -17 -34 -67 -16 -67 21 0 60 47 54 64 -8 19 -17 20
-38 3z"/>
<path d="M3220 2970 c0 -5 5 -10 10 -10 6 0 10 5 10 10 0 6 -4 10 -10 10 -5 0
-10 -4 -10 -10z"/>
<path d="M980 2872 c0 -40 15 -72 35 -72 21 0 18 19 -10 65 l-24 40 -1 -33z"/>
<path d="M1073 2764 c20 -39 47 -63 47 -42 0 16 -16 37 -44 58 -19 15 -19 14
-3 -16z"/>
<path d="M2006 2639 c-18 -27 -4 -65 28 -73 28 -8 81 -8 89 0 8 8 -9 42 -36
72 -26 28 -61 28 -81 1z"/>
<path d="M2308 2639 c-19 -10 -23 -45 -10 -67 11 -17 82 -2 96 21 24 38 -42
73 -86 46z"/>
<path d="M1894 2239 c-32 -9 -60 -34 -66 -59 -3 -12 30 -14 220 -15 123 -1
225 2 228 7 3 4 -14 8 -38 9 -250 2 -303 5 -303 16 0 6 -3 15 -7 19 -13 12 -9
22 10 27 11 3 12 5 2 5 -8 0 -29 -4 -46 -9z"/>
<path d="M2470 2205 c0 -24 -2 -25 -67 -26 -57 -1 -63 -2 -38 -10 44 -13 195
-10 195 5 0 17 -13 32 -37 45 -35 18 -53 14 -53 -14z"/>
<path d="M2086 1961 c-8 -12 70 -20 144 -15 111 9 93 24 -27 24 -62 0 -114 -4
-117 -9z"/>
<path d="M1203 1743 c-16 -21 -52 -74 -78 -118 -120 -195 -208 -304 -283 -346
-49 -28 -240 -153 -623 -410 -52 -35 -123 -80 -157 -99 l-61 -35 -1 -367 0
-368 760 0 759 0 -15 48 c-8 26 -21 70 -29 97 -37 132 -146 501 -174 590 -98
317 -147 710 -107 848 9 32 25 72 36 89 14 23 18 42 14 68 -3 19 -7 36 -9 38
-1 2 -16 -14 -32 -35z"/>
<path d="M1530 1700 c27 -21 40 -25 40 -12 0 4 -15 13 -32 20 l-33 12 25 -20z"/>
<path d="M1570 1716 c0 -2 9 -6 20 -9 11 -3 20 -1 20 4 0 5 -9 9 -20 9 -11 0
-20 -2 -20 -4z"/>
<path d="M1620 1690 c0 -5 5 -10 10 -10 6 0 10 5 10 10 0 6 -4 10 -10 10 -5 0
-10 -4 -10 -10z"/>
<path d="M1643 1673 c-27 -5 -30 -20 -5 -26 15 -4 15 -5 -2 -6 -18 -1 -17 -3
4 -21 13 -11 20 -23 17 -27 -8 -7 21 -43 35 -43 6 0 21 -9 34 -19 17 -13 20
-21 12 -24 -8 -3 -6 -6 5 -6 9 -1 17 -5 17 -11 0 -5 3 -9 8 -8 4 1 22 -6 40
-15 17 -10 32 -14 32 -10 0 5 4 2 8 -5 5 -7 22 -15 38 -18 16 -3 31 -8 34 -12
5 -7 10 -8 61 -10 16 -1 28 -5 26 -9 -3 -5 74 -8 171 -8 158 0 179 2 194 18 9
10 19 18 22 18 21 -3 26 0 20 11 -5 7 -3 8 5 4 7 -5 21 0 32 10 10 9 22 14 25
11 4 -3 13 0 21 8 8 8 27 13 43 11 22 -2 31 2 39 21 6 13 11 32 11 41 1 16 2
16 13 1 11 -15 14 -14 24 8 9 19 9 23 -1 16 -6 -4 -5 -1 4 7 20 19 31 58 19
66 -5 3 -9 0 -9 -5 0 -6 -5 -11 -11 -11 -5 0 -8 4 -5 8 3 5 -16 -2 -42 -14
-69 -34 -102 -40 -102 -19 0 9 -4 14 -9 11 -5 -3 -7 -15 -4 -25 4 -16 1 -19
-18 -14 -13 4 -18 8 -11 11 7 2 9 8 6 14 -3 5 -15 2 -27 -9 -18 -16 -20 -16
-14 -1 4 12 2 15 -8 12 -8 -3 -11 -12 -8 -19 3 -10 -1 -13 -16 -10 -14 3 -21
-1 -21 -12 0 -12 -5 -11 -20 7 -11 13 -20 18 -20 12 0 -5 -9 -8 -20 -5 -11 3
-20 1 -20 -4 0 -5 -6 -10 -12 -10 -7 0 -21 -4 -30 -8 -13 -5 -18 -2 -18 9 0
19 -20 22 -20 4 0 -7 -11 -1 -24 14 -19 21 -25 24 -30 12 -4 -11 -10 -12 -25
-5 -10 6 -21 7 -25 4 -3 -3 -6 -1 -6 7 0 10 -3 10 -15 0 -9 -7 -19 -10 -22 -6
-4 4 -13 -4 -20 -16 -7 -13 -12 -17 -13 -11 0 9 -7 10 -24 3 -18 -6 -26 -5
-29 5 -4 8 -20 12 -46 12 -28 -2 -41 2 -41 11 0 8 -8 12 -17 10 -10 -2 -22 5
-28 16 -5 10 -13 18 -18 17 -4 -1 -22 5 -40 12 -17 7 -44 12 -59 12 -16 -1
-28 3 -28 7 0 4 -3 7 -7 7 -5 -1 -18 -4 -30 -6z"/>
<path d="M2988 1588 c-2 -35 3 -85 9 -113 29 -112 17 -233 -52 -545 -30 -137
-70 -371 -90 -527 -4 -29 -11 -53 -15 -53 -4 0 -6 -8 -3 -19 3 -10 -5 -77 -16
-148 -12 -71 -21 -141 -21 -156 l0 -27 665 0 665 0 0 519 0 519 -37 12 c-101
33 -325 138 -568 268 -124 66 -259 126 -326 146 -42 12 -66 26 -90 53 -18 21
-51 59 -75 86 l-42 47 -4 -62z"/>
<path d="M2894 1154 c-18 -35 -28 -64 -24 -64 8 0 64 119 58 125 -1 1 -17 -26
-34 -61z"/>
<path d="M1386 1033 c64 -112 148 -221 127 -167 -4 10 -26 44 -49 74 -22 30
-54 74 -69 98 -37 57 -44 54 -9 -5z"/>
<path d="M2840 1058 c-7 -12 -31 -48 -55 -78 -23 -30 -49 -68 -58 -85 -8 -16
-25 -41 -38 -54 -12 -13 -38 -44 -57 -70 -20 -25 -49 -60 -65 -77 -35 -38 -77
-110 -84 -143 -4 -23 26 12 200 239 72 93 183 277 174 287 -3 3 -11 -6 -17
-19z"/>
<path d="M2631 487 c-6 -6 -11 -14 -11 -18 0 -10 60 -5 61 6 1 15 -37 25 -50
12z"/>
<path d="M2760 391 c0 -25 6 -27 13 -6 4 8 2 17 -3 20 -6 4 -10 -3 -10 -14z"/>
</g>
</svg>
