<?xml version="1.0" standalone="no"?>
<!DOCTYPE svg PUBLIC "-//W3C//DTD SVG 20010904//EN"
 "http://www.w3.org/TR/2001/REC-SVG-20010904/DTD/svg10.dtd">
<svg version="1.0" xmlns="http://www.w3.org/2000/svg"
 width="300.000000pt" height="386.000000pt" viewBox="0 0 300.000000 386.000000"
 preserveAspectRatio="xMidYMid meet">
<metadata>
Created by potrace 1.10, written by Peter Selinger 2001-2011
</metadata>
<g transform="translate(0.000000,386.000000) scale(0.100000,-0.100000)"
fill="#000000" stroke="none">
<path d="M1454 3694 c9 -6 16 -16 16 -21 0 -5 13 -8 29 -5 16 2 32 -1 35 -7 4
-6 12 -11 17 -11 6 0 7 5 4 10 -3 6 1 13 10 17 10 3 21 0 25 -7 5 -8 9 -9 14
-1 4 6 12 11 18 11 6 0 5 -7 -3 -17 -12 -15 -12 -16 6 -9 39 16 55 18 55 8 0
-18 31 -22 52 -8 11 8 27 12 34 9 8 -3 14 -1 14 3 -1 27 -22 32 -178 36 -125
3 -160 1 -148 -8z"/>
<path d="M1300 3689 c0 -5 -4 -8 -9 -5 -15 10 -114 -16 -147 -38 -52 -34 -136
-102 -185 -148 -43 -40 -126 -178 -143 -238 -4 -14 -18 -63 -31 -110 -12 -47
-28 -98 -33 -115 -37 -107 -47 -281 -26 -465 7 -63 13 -122 14 -131 0 -8 7
-24 15 -35 13 -18 14 -18 8 6 -5 24 -5 25 10 5 9 -11 17 -27 17 -36 0 -9 3
-19 7 -23 4 -4 8 -13 9 -19 0 -7 2 -20 2 -29 1 -10 6 -18 12 -18 5 0 8 14 6
32 -2 18 0 43 5 55 9 24 -4 33 -17 12 -4 -7 -15 9 -25 37 -23 59 -23 54 -1 54
14 0 14 2 3 9 -8 5 -11 16 -8 26 4 9 3 14 -1 11 -16 -9 -31 10 -25 32 3 12 9
20 13 17 4 -3 2 12 -6 33 -16 46 -17 75 -3 89 8 8 8 13 0 17 -6 4 -11 13 -11
19 0 7 4 6 10 -3 8 -13 10 -12 10 3 0 9 -4 17 -10 17 -5 0 -7 6 -4 14 3 8 0
17 -6 21 -8 5 -8 11 1 21 6 8 8 14 4 14 -5 0 0 10 11 22 17 20 17 21 1 9 -17
-13 -18 -12 -11 14 6 22 4 26 -7 20 -11 -7 -12 -6 -2 6 7 8 15 39 18 69 6 59
32 130 48 130 5 0 7 7 3 15 -3 8 -1 15 4 15 5 0 7 12 4 28 -4 19 1 33 15 49
16 17 19 30 15 64 -3 24 -2 40 2 36 12 -11 33 13 27 31 -5 14 -3 15 8 5 19
-19 39 -16 39 5 0 10 6 24 13 31 10 11 7 12 -13 7 -24 -7 -24 -6 -6 8 11 9 17
19 13 22 -10 11 32 62 54 66 11 2 21 7 22 13 4 20 72 82 84 78 7 -3 13 1 13 8
0 17 80 72 106 74 11 2 28 6 39 10 12 4 15 3 8 -2 -8 -5 -9 -14 -3 -23 8 -13
12 -11 25 8 11 15 26 22 48 22 l32 -1 -30 -14 -30 -14 30 5 c17 3 42 9 57 14
19 6 28 5 32 -6 3 -8 18 -14 33 -13 l28 1 -30 13 c-23 11 -26 14 -10 15 16 0
17 2 6 9 -8 5 -20 7 -28 4 -7 -3 -19 -1 -26 4 -6 4 -27 8 -44 8 -18 0 -33 3
-33 7 0 4 -4 8 -10 8 -5 0 -10 -5 -10 -11z"/>
<path d="M1787 3682 c6 -23 53 -45 68 -32 14 12 48 2 39 -11 -3 -5 2 -6 11 -3
9 4 13 9 11 12 -3 3 -1 11 5 18 7 9 0 14 -32 19 -89 15 -107 15 -102 -3z"/>
<path d="M1942 3648 c-17 -17 -15 -24 10 -25 13 -1 24 -7 26 -12 2 -5 9 -8 17
-5 7 3 16 1 19 -5 4 -6 14 -7 22 -4 9 3 19 1 23 -4 4 -7 11 -6 19 3 11 12 10
15 -5 21 -10 3 -37 14 -60 24 -49 22 -55 23 -71 7z"/>
<path d="M1490 3614 c0 -8 8 -23 17 -32 15 -16 16 -15 10 10 -5 17 -3 28 6 31
6 3 2 6 -10 6 -15 1 -23 -5 -23 -15z"/>
<path d="M2090 3575 c0 -9 -6 -18 -14 -21 -10 -4 -12 -14 -5 -42 4 -20 5 -40
2 -45 -3 -6 -1 -7 4 -4 6 4 14 -1 17 -10 5 -13 9 -14 19 -4 9 10 8 14 -5 22
-21 12 -24 59 -5 59 25 0 75 -79 63 -98 -3 -5 1 -13 10 -16 24 -9 28 -7 14 8
-9 12 -8 15 9 13 13 -1 21 -8 21 -20 0 -26 19 -59 31 -52 5 4 9 -4 9 -15 0
-13 -8 -24 -20 -27 -20 -5 -29 -33 -10 -33 6 0 10 6 10 13 0 8 4 7 10 -3 13
-20 12 -30 -1 -30 -5 0 -7 6 -3 13 4 6 -2 3 -14 -7 -24 -21 -28 -41 -10 -52 8
-5 9 -2 5 10 -10 26 1 38 24 26 15 -9 19 -7 19 5 0 8 5 15 10 15 6 0 10 -7 10
-15 0 -8 5 -14 12 -12 7 1 12 -3 13 -10 0 -6 3 -15 7 -18 4 -4 1 -20 -7 -36
-17 -32 -19 -53 -6 -44 5 3 9 -8 9 -24 -1 -22 -5 -28 -17 -24 -14 4 -14 3 1
-9 12 -10 13 -19 7 -31 -7 -11 -6 -17 1 -17 5 0 10 -12 10 -27 l0 -28 -14 27
c-8 15 -12 36 -9 48 6 24 -9 26 -28 3 -12 -14 -12 -16 0 -8 11 6 13 3 9 -13
-4 -12 -2 -22 2 -22 10 0 25 -40 22 -57 -2 -8 3 -10 13 -7 11 5 15 -1 15 -20
0 -14 5 -26 10 -26 7 0 8 -6 2 -17 -7 -12 -5 -24 7 -42 15 -24 15 -25 -2 -18
-11 4 -17 2 -17 -8 0 -8 5 -15 11 -15 7 0 9 -12 5 -36 -4 -21 -3 -41 4 -48 6
-9 7 -22 2 -37 -5 -13 -6 -36 -2 -50 11 -38 5 -126 -10 -144 -6 -8 -10 -20 -7
-27 2 -7 -1 -26 -7 -43 -16 -38 -21 -237 -7 -215 6 8 11 39 11 68 0 53 4 59
29 43 11 -7 25 -1 48 20 34 29 67 37 78 19 3 -5 -1 -10 -9 -10 -20 0 -20 -7
-1 -26 22 -22 24 -138 4 -176 -6 -11 -9 -22 -6 -24 2 -3 12 10 20 28 9 18 17
26 17 17 0 -22 -27 -85 -33 -79 -3 3 -9 1 -14 -4 -5 -5 -3 -6 5 -2 6 4 12 2
12 -3 0 -6 -4 -11 -8 -11 -4 0 -9 -12 -10 -27 -1 -14 -9 -34 -18 -44 -9 -10
-14 -22 -11 -27 8 -12 -35 -101 -67 -139 -28 -33 -59 -43 -71 -22 -11 17 -35
-39 -60 -142 -13 -53 -34 -121 -48 -151 -14 -31 -28 -82 -31 -114 -19 -193
-19 -191 -2 -197 11 -4 16 -19 16 -47 0 -22 5 -71 12 -110 14 -82 5 -163 -41
-363 -16 -69 -39 -196 -52 -281 -18 -126 -25 -153 -36 -145 -16 14 -17 -3 -1
-19 11 -11 3 -103 -18 -215 -4 -20 -2 -27 10 -27 9 0 16 3 17 8 0 4 2 30 5 57
2 28 8 66 13 85 13 48 33 165 38 220 2 25 8 65 13 90 5 25 16 86 25 135 9 50
19 97 22 105 3 8 8 24 10 35 1 11 10 52 19 90 9 39 16 117 16 174 1 99 2 104
17 85 10 -10 30 -30 46 -44 22 -20 27 -21 22 -7 -6 17 -3 16 31 -4 20 -12 49
-31 65 -41 15 -11 27 -17 27 -13 0 3 21 -4 48 -17 26 -13 101 -51 167 -83 66
-33 128 -66 138 -74 9 -8 17 -11 17 -7 0 4 12 0 28 -8 27 -16 137 -58 160 -62
6 -1 12 6 12 15 0 13 -23 26 -84 50 -47 17 -191 85 -320 150 -130 66 -253 122
-273 126 -31 5 -49 20 -93 72 -65 76 -76 102 -61 145 6 17 11 58 11 92 0 46 7
76 28 121 29 61 55 153 67 237 7 46 8 47 40 46 17 -1 37 2 43 6 30 18 77 107
114 214 74 216 72 208 58 284 -6 37 -20 78 -29 89 -24 30 -66 27 -101 -6 -34
-33 -68 -29 -50 5 24 44 41 187 39 325 -2 189 -2 190 -16 207 -7 8 -10 18 -7
21 4 3 0 28 -9 54 -8 26 -12 64 -10 83 18 125 16 156 -16 216 -53 101 -128
210 -187 271 -44 46 -54 52 -54 28z"/>
<path d="M1890 3571 c0 -11 40 -22 54 -14 5 4 1 10 -10 14 -27 11 -44 11 -44
0z"/>
<path d="M1365 3551 c3 -10 -1 -24 -10 -31 -12 -10 -13 -15 -4 -21 7 -4 14
-16 15 -26 2 -14 -1 -13 -16 7 -11 14 -17 31 -15 39 5 11 3 12 -10 1 -13 -11
-13 -15 -3 -21 7 -5 9 -9 4 -9 -5 0 3 -9 17 -20 14 -11 28 -20 30 -20 13 0 11
46 -3 58 -13 11 -11 13 12 9 24 -4 26 -2 17 14 -5 11 -14 19 -20 19 -6 0 -7 5
-4 10 3 6 1 10 -5 10 -7 0 -9 -8 -5 -19z"/>
<path d="M1076 3510 c-14 -4 -16 -9 -8 -14 7 -4 12 -4 13 1 0 4 3 1 7 -8 6
-14 9 -15 19 -4 16 18 -5 35 -31 25z"/>
<path d="M1732 3490 c1 -13 9 -25 16 -28 17 -5 15 23 -4 39 -14 11 -15 10 -12
-11z"/>
<path d="M1921 3470 c-20 -4 -21 -7 -9 -17 8 -7 19 -8 27 -4 21 13 9 28 -18
21z"/>
<path d="M2134 3408 c16 -36 51 -55 60 -32 4 11 0 14 -17 12 -18 -2 -23 2 -25
25 -2 15 -10 27 -17 27 -12 0 -12 -5 -1 -32z"/>
<path d="M1870 3381 c19 -16 37 -27 40 -24 6 6 -51 53 -65 53 -5 0 6 -13 25
-29z"/>
<path d="M1620 3393 c0 -5 7 -18 15 -29 8 -12 11 -24 8 -28 -3 -3 1 -6 10 -6
10 0 14 5 11 15 -4 8 -10 15 -15 15 -5 0 -9 6 -9 14 0 8 -4 18 -10 21 -5 3
-10 2 -10 -2z"/>
<path d="M1755 3341 c-3 -6 1 -14 10 -18 8 -5 19 -23 24 -41 9 -28 7 -32 -10
-32 -11 0 -22 7 -25 15 -4 8 -11 15 -16 15 -7 0 -6 -5 1 -13 6 -8 8 -17 4 -20
-8 -9 40 -9 61 -1 12 5 13 11 4 32 -28 72 -39 84 -53 63z"/>
<path d="M1463 3288 c-16 -27 -13 -48 7 -48 11 0 20 5 20 10 0 13 33 13 47 -1
8 -8 16 -8 30 1 17 11 17 11 -1 6 -10 -4 -25 -1 -32 5 -8 6 -25 8 -39 5 -25
-6 -36 9 -13 16 9 3 9 6 1 11 -7 4 -15 2 -20 -5z"/>
<path d="M1960 3294 c0 -6 7 -17 15 -24 8 -7 12 -17 8 -23 -3 -6 -1 -7 5 -3 7
4 12 2 12 -3 0 -6 5 -11 10 -11 6 0 10 9 10 20 0 13 -5 18 -15 14 -11 -5 -14
-1 -9 12 4 14 3 16 -4 5 -8 -11 -12 -10 -21 5 -6 11 -11 14 -11 8z"/>
<path d="M1313 3267 c4 -10 7 -21 7 -23 0 -3 4 -3 9 0 5 3 25 -1 45 -9 20 -8
36 -11 36 -6 0 5 -17 15 -37 22 -21 6 -44 17 -52 23 -12 9 -13 8 -8 -7z"/>
<path d="M1199 3240 c-7 -14 -15 -29 -18 -34 -2 -5 1 -6 7 -2 7 4 12 14 12 22
0 16 16 19 25 4 3 -5 11 -10 16 -10 6 0 7 5 4 10 -3 6 -2 10 4 10 6 0 8 6 5
13 -8 22 -42 14 -55 -13z"/>
<path d="M1353 3203 c-13 -2 -23 -8 -23 -13 0 -4 10 -6 22 -2 15 4 19 2 14 -7
-6 -9 1 -12 25 -9 18 2 34 9 37 16 3 11 0 12 -14 4 -22 -11 -47 -5 -38 9 3 5
4 8 2 8 -2 -1 -13 -4 -25 -6z"/>
<path d="M875 3190 c-3 -5 -4 -10 0 -10 3 0 1 -10 -6 -21 -9 -17 -8 -20 3 -17
7 3 18 -2 25 -11 11 -14 12 -14 13 -1 0 13 1 13 11 0 9 -13 10 -13 6 0 -2 8
-8 15 -13 15 -5 0 -15 4 -23 9 -11 7 -11 10 0 17 11 7 11 9 1 9 -7 0 -10 5 -7
10 3 6 4 10 1 10 -3 0 -8 -4 -11 -10z"/>
<path d="M2226 3178 c-9 -34 -7 -48 5 -48 6 0 9 9 6 20 -3 10 0 21 7 23 8 3 8
8 0 16 -9 9 -13 7 -18 -11z"/>
<path d="M2089 3173 c-9 -11 -10 -14 -1 -9 7 4 15 1 18 -8 3 -9 12 -16 19 -16
7 0 16 -6 18 -12 4 -9 6 -8 6 3 1 8 -10 25 -22 38 -23 20 -25 21 -38 4z"/>
<path d="M917 3030 c-8 -11 -17 -17 -20 -13 -4 3 -7 -1 -7 -10 0 -9 -5 -17
-12 -17 -8 0 -6 -6 5 -17 19 -20 19 -20 39 35 18 46 17 53 -5 22z"/>
<path d="M1058 2533 c-16 -2 -28 -10 -28 -17 0 -7 -11 -18 -23 -23 -13 -6 -33
-27 -45 -47 -21 -36 -21 -36 -1 -36 24 0 49 22 49 44 0 11 10 16 33 17 138 3
198 7 204 12 11 12 40 7 53 -8 15 -18 -1 -20 -19 -2 -11 10 -13 9 -9 -3 3 -11
19 -15 54 -16 56 0 76 4 68 17 -3 5 5 9 18 9 21 1 21 2 5 11 -10 6 -24 8 -32
5 -7 -2 -23 4 -35 14 -13 11 -26 17 -30 15 -5 -3 -10 -1 -12 5 -1 5 -13 7 -25
4 -13 -4 -20 -10 -17 -15 3 -5 0 -9 -5 -9 -6 0 -11 4 -11 9 0 13 -101 22 -119
10 -12 -8 -9 -9 16 -5 27 4 31 2 30 -14 -1 -20 -27 -29 -27 -10 0 7 -7 7 -20
0 -12 -6 -29 -8 -40 -5 -10 3 -21 1 -25 -5 -7 -12 -25 -4 -25 11 0 6 4 8 9 5
5 -4 20 -2 33 3 13 6 17 10 8 11 -10 1 -9 4 5 10 21 9 9 10 -37 3z"/>
<path d="M1890 2517 c0 -5 -10 -7 -22 -4 -13 3 -52 0 -88 -7 l-65 -12 53 -14
c34 -9 51 -18 48 -26 -5 -14 55 -11 146 7 26 5 54 6 63 3 8 -3 15 -2 15 4 0 6
-5 12 -12 14 -9 3 -9 6 0 12 7 4 12 3 12 -3 0 -14 78 -34 105 -27 18 5 24 1
29 -18 4 -18 11 -23 25 -19 19 5 19 7 -5 43 -24 37 -64 60 -64 37 0 -6 -6 -2
-14 9 -12 15 -17 17 -27 7 -11 -11 -10 -13 4 -13 9 0 17 -4 17 -10 0 -15 -27
-12 -62 6 -16 9 -27 11 -24 5 8 -12 1 -13 -31 -5 -13 4 -20 10 -17 16 3 5 -14
8 -40 7 -25 -2 -46 -7 -46 -12z m70 -16 c0 -13 -9 -21 -30 -26 -32 -7 -71 7
-51 19 6 4 11 1 12 -6 0 -7 4 -4 9 7 5 11 9 14 9 8 1 -18 28 -16 35 2 8 21 16
19 16 -4z"/>
<path d="M621 2401 c-23 -23 -51 -110 -51 -155 0 -40 96 -304 135 -373 30 -53
55 -70 110 -75 29 -3 30 -5 42 -77 7 -41 17 -88 24 -105 6 -17 15 -93 20 -170
7 -122 6 -140 -8 -155 -9 -9 -46 -61 -81 -116 -92 -143 -146 -210 -189 -236
-21 -12 -151 -98 -289 -189 -137 -92 -269 -177 -292 -190 -44 -25 -58 -52 -22
-43 11 3 20 9 20 14 0 5 11 7 24 3 17 -4 28 0 38 15 8 12 18 18 21 14 4 -3 7
-1 7 5 0 7 5 12 10 12 6 0 33 16 60 35 27 19 54 35 60 35 5 0 10 5 10 10 0 6
7 10 15 10 7 0 19 8 24 18 6 9 11 14 11 10 0 -4 8 -1 18 7 9 8 20 15 24 16 4
0 21 13 39 30 17 16 37 29 45 29 8 0 14 4 14 10 0 5 17 19 38 30 51 28 72 41
105 68 16 12 35 22 43 22 8 0 14 5 14 11 0 6 7 8 17 5 10 -4 14 -4 11 0 -6 5
49 83 73 104 3 3 8 13 12 22 3 9 15 21 25 27 19 10 20 7 21 -47 2 -78 7 -117
25 -182 8 -30 13 -57 11 -60 -2 -4 1 -24 6 -46 5 -21 12 -56 15 -76 3 -21 18
-76 34 -124 21 -64 26 -92 19 -105 -7 -14 -6 -17 4 -14 12 5 40 -84 68 -220 6
-27 16 -59 22 -70 6 -11 12 -22 12 -25 1 -3 7 -29 14 -57 10 -41 17 -53 32
-53 10 0 19 2 19 3 0 7 -131 462 -160 557 -44 142 -82 359 -83 475 -1 83 2
108 21 149 12 27 22 57 22 67 0 11 9 35 19 55 15 27 18 49 15 87 -3 29 -6 77
-8 107 -3 31 -11 80 -20 110 -15 55 -28 122 -28 150 -1 22 -50 71 -65 66 -22
-9 -57 13 -77 47 -39 65 -54 97 -45 97 5 0 0 18 -11 39 -49 98 -71 301 -36
340 17 18 17 20 0 29 -16 9 -15 10 4 16 16 6 32 -1 59 -23 33 -28 63 -40 63
-26 0 3 -17 20 -37 40 -43 40 -83 45 -112 16z"/>
<path d="M1121 2409 c-33 -13 -83 -50 -77 -57 4 -3 17 5 30 17 13 12 43 29 67
36 24 8 35 14 24 14 -11 0 -31 -5 -44 -10z"/>
<path d="M1271 2411 c20 -4 51 -16 70 -27 45 -26 69 -35 69 -25 0 18 -98 61
-136 60 l-39 -1 36 -7z"/>
<path d="M1860 2403 c-14 -2 -32 -11 -40 -18 -8 -7 -25 -16 -38 -20 -12 -3
-20 -10 -17 -15 3 -5 31 4 61 21 77 40 149 40 230 -1 69 -35 82 -32 26 5 -34
22 -54 27 -119 30 -43 2 -89 1 -103 -2z"/>
<path d="M1097 2359 c-58 -38 -63 -65 -11 -58 4 0 10 -4 13 -9 6 -9 39 -16 69
-13 25 2 1 21 -27 21 -16 0 -34 6 -40 14 -9 11 -5 18 22 35 44 27 45 26 49 -6
6 -50 108 -53 108 -3 0 25 7 25 44 1 l29 -19 -42 -12 c-57 -15 -46 -23 18 -14
67 9 65 28 -8 66 -78 41 -160 40 -224 -3z"/>
<path d="M1878 2366 c-52 -19 -96 -48 -80 -54 7 -2 21 3 31 12 24 22 34 20 48
-10 l12 -25 -47 6 c-38 5 -43 4 -29 -5 22 -14 133 -6 153 11 8 6 14 20 14 30
0 24 7 24 54 -5 43 -26 42 -27 -39 -42 l-40 -7 33 -10 c22 -7 40 -7 55 1 12 6
35 13 50 17 l29 6 -27 24 c-57 54 -149 75 -217 51z"/>
<path d="M1406 2252 c-16 -26 -21 -40 -11 -32 17 15 49 69 43 75 -2 2 -16 -17
-32 -43z"/>
<path d="M754 2192 c-13 -9 -25 -52 -15 -52 5 0 16 9 26 20 10 11 23 17 29 13
6 -4 5 1 -3 10 -15 19 -21 20 -37 9z"/>
<path d="M2320 2166 c0 -16 3 -26 7 -23 3 4 12 2 19 -4 14 -11 34 -5 34 11 0
5 -10 12 -22 16 -13 4 -26 12 -30 18 -4 6 -8 -2 -8 -18z"/>
<path d="M704 2088 c3 -13 6 -26 6 -30 0 -4 13 -14 29 -23 17 -8 38 -28 48
-45 9 -16 21 -30 25 -30 15 0 -6 36 -49 84 -24 26 -43 52 -43 57 0 5 -5 9 -11
9 -7 0 -9 -9 -5 -22z"/>
<path d="M2377 2034 c-17 -23 -17 -24 1 -24 21 0 34 20 24 37 -4 7 -14 1 -25
-13z"/>
<path d="M2320 1992 c-14 -11 -20 -24 -16 -31 5 -8 14 -4 28 14 25 32 18 42
-12 17z"/>
<path d="M1457 1916 c-8 -19 24 -46 55 -46 15 0 33 -9 43 -22 15 -21 15 -21
-1 7 -37 66 -84 96 -97 61z"/>
<path d="M1677 1918 c-11 -8 -15 -21 -11 -34 5 -20 9 -21 40 -11 36 11 47 40
18 51 -22 8 -28 8 -47 -6z"/>
<path d="M1380 1883 c0 -18 36 -43 61 -42 l24 0 -25 10 c-13 6 -33 17 -42 26
-10 9 -18 12 -18 6z"/>
<path d="M1366 1622 c-22 -15 -39 -31 -38 -37 1 -6 100 -11 267 -12 231 -3
265 -1 265 12 0 9 -12 21 -27 28 -16 6 -31 16 -35 22 -5 6 -8 3 -8 -7 0 -9 5
-20 10 -23 27 -17 -7 -20 -202 -18 -141 1 -213 6 -212 13 2 25 5 29 22 32 9 2
12 6 7 10 -6 3 -28 -6 -49 -20z"/>
<path d="M1496 1432 c-17 -17 3 -22 87 -22 58 1 98 5 109 13 14 11 -1 13 -87
14 -57 0 -106 -2 -109 -5z"/>
<path d="M1224 1180 c0 -11 4 -20 9 -20 4 0 5 -4 2 -10 -8 -14 75 -63 107 -63
17 0 28 -6 28 -14 0 -17 18 -16 54 2 25 13 28 13 22 -1 -5 -13 -2 -15 11 -9
10 4 27 7 38 7 18 -1 18 0 3 9 -24 13 -81 17 -95 6 -9 -6 -13 -6 -13 1 0 6 5
14 10 17 6 3 10 14 10 23 0 13 -3 12 -16 -6 -9 -13 -20 -19 -27 -15 -7 4 -20
6 -31 4 -10 -1 -15 2 -12 7 6 9 -23 23 -54 26 -8 0 -17 12 -20 25 -6 30 -26
39 -26 11z"/>
<path d="M900 1145 c-7 -71 -6 -94 7 -160 14 -75 59 -179 117 -269 36 -56 155
-200 334 -403 107 -123 124 -160 99 -224 -16 -41 -14 -64 6 -72 9 -3 12 21 12
88 0 90 -1 94 -35 141 -19 27 -39 54 -45 60 -26 27 -81 98 -85 110 -3 7 -45
57 -94 110 -208 223 -259 312 -295 519 -6 33 -13 76 -14 95 -4 34 -4 34 -7 5z"/>
<path d="M1799 1116 c-9 -19 -15 -23 -25 -15 -9 7 -15 5 -23 -8 -6 -10 -11
-13 -11 -5 0 10 -5 10 -20 2 -16 -9 -20 -8 -20 5 0 12 -7 10 -27 -10 -15 -14
-33 -25 -39 -25 -7 0 -15 -7 -18 -16 -6 -15 -4 -15 18 0 30 19 40 21 30 4 -5
-8 -2 -9 12 -4 10 5 37 13 59 18 45 10 106 48 102 62 -7 21 -27 16 -38 -8z"/>
<path d="M1530 1073 c-16 -19 -18 -24 -6 -20 9 4 16 2 16 -4 0 -17 17 -1 23
21 8 31 -7 32 -33 3z"/>
<path d="M2141 1026 c-6 -15 -15 -57 -20 -91 -6 -39 -22 -85 -42 -121 -29 -54
-143 -222 -158 -234 -4 -3 -29 -32 -56 -65 -28 -33 -52 -62 -55 -65 -3 -3 -14
-18 -24 -35 -10 -16 -50 -71 -88 -122 l-70 -92 21 -56 21 -57 -21 -34 c-18
-30 -19 -33 -3 -27 13 5 16 3 11 -10 -4 -12 -1 -17 11 -17 14 0 17 8 15 47 -1
27 -7 68 -12 93 -6 25 -10 50 -11 56 0 6 31 47 70 93 38 45 86 106 107 134 20
29 62 83 92 121 111 138 196 299 217 408 16 85 14 121 -5 74z"/>
<path d="M2498 466 c-84 -46 -84 -54 0 -12 39 20 72 38 72 41 0 9 -14 3 -72
-29z"/>
<path d="M2680 404 c-1 -5 -5 -28 -9 -51 -5 -24 -5 -43 -1 -43 8 0 21 92 14
99 -2 2 -4 0 -4 -5z"/>
<path d="M1856 361 c-11 -12 -14 -21 -8 -21 7 0 14 0 17 0 3 0 12 -12 20 -27
10 -20 14 -23 15 -10 0 19 15 23 26 6 3 -6 19 -9 35 -5 26 5 29 3 29 -19 0
-30 14 -39 30 -20 15 18 0 39 -58 79 -54 37 -84 41 -106 17z"/>
<path d="M491 321 c-16 -11 36 -30 172 -66 110 -28 115 -29 102 -16 -6 5 -59
21 -120 36 -60 16 -117 34 -125 41 -9 8 -21 10 -29 5z"/>
<path d="M340 317 c0 -1 12 -34 26 -72 15 -39 37 -98 49 -133 19 -54 35 -86
35 -71 0 8 -49 155 -69 208 -11 30 -18 58 -15 62 3 5 -2 9 -10 9 -9 0 -16 -1
-16 -3z"/>
<path d="M2651 219 c-7 -44 -15 -88 -17 -97 -5 -14 -4 -15 4 -2 11 17 36 169
29 176 -2 3 -10 -32 -16 -77z"/>
<path d="M1268 256 c-41 -15 -74 -43 -63 -54 3 -4 12 1 19 11 17 22 35 22 61
-3 l21 -19 -1 26 c0 25 3 27 34 26 32 0 33 1 16 13 -23 17 -39 17 -87 0z"/>
<path d="M1153 176 c-38 -24 -42 -36 -13 -36 11 0 20 4 20 9 0 5 7 17 16 26
25 24 13 25 -23 1z"/>
</g>
</svg>
